<svg xmlns="http://www.w3.org/2000/svg" viewBox="0 0 1293.55 188.1"><defs><style>.a{fill:#fff;}.b{fill:#95c11f;}</style></defs><title>pixel-photo-logo</title><path class="a" d="M111.72,63.77q16.08,0,27.87,3.76a53.78,53.78,0,0,1,19.5,10.54,42.09,42.09,0,0,1,11.45,16.31,56.66,56.66,0,0,1,3.76,21,56.4,56.4,0,0,1-4,21.49,45.21,45.21,0,0,1-11.86,16.76,55.61,55.61,0,0,1-19.55,10.94q-11.68,3.93-27.19,3.93H87.32v59.4H60.65V63.77Zm0,83.67a49.13,49.13,0,0,0,15.67-2.28,30.78,30.78,0,0,0,11.29-6.44,26.39,26.39,0,0,0,6.78-10.09,36.57,36.57,0,0,0,2.28-13.22,35.25,35.25,0,0,0-2.22-12.88,25,25,0,0,0-6.67-9.69,29.69,29.69,0,0,0-11.23-6.1,53.58,53.58,0,0,0-15.9-2.11H87.32v62.81Z" transform="translate(-60.65 -44.39)"/><path class="a" d="M226.63,227.93H199.84V63.77h26.79Z" transform="translate(-60.65 -44.39)"/><path class="a" d="M538.41,206.38l-.11,21.55H435.93V63.77H538.3V85.31H462.72v49.48h60.42v20.86H462.72v50.73Z" transform="translate(-60.65 -44.39)"/><path class="a" d="M662.1,205.58v22.35H567.25V63.77h26.68V205.58Z" transform="translate(-60.65 -44.39)"/><path class="a" d="M869.14,121.62l-2.85,8.84L861.16,135v3.7a42,42,0,0,0-5.7,2l-.85.28q-1.44,3.7-4.57,4-3.42,3.7-12.26,5.7-4.28,4.84-9.12,5.13l-4,2H819l-3.14,2-1.42.29a9.55,9.55,0,0,1-3.42,2l-3.14,2.28h-6.56l-3.42,2.85-12.26,2.57a68,68,0,0,0-6.84.57l-6,4.56a12.54,12.54,0,0,0-5.13-1.14h-1.71l-2,1.14-3.71.86-2.57,1.71-2,.58,3.13,5-2,7.1,2.28,9.37v6.53l1.14,2.56q6,.85,6,7.66,0,6.54-10.55,9.93l-8,2.56-8.83-10.54-3.71-11.69V195.72l-4-7.12,2.85-3.14L733.2,182l.28-2.28a82.66,82.66,0,0,1-11.4-1.42l-9.69-13.68,21.38-1.43v-2.86l1.63-3.44,1.3-12,1.63-1.72-.86-10.87.86-4.59V112.28l3.61-6.59.66-.57-.28-.86a9.68,9.68,0,0,1,4.56-5.72l6.27-.29h2q12.25,0,12.26,9.17c0,2.48-1.34,5.91-4,10.3v1.43c0,2.87,1.32,5.83,4,8.88l-4,1.15v7.16l-4.28,2.86,1.43,4-2.28,4.3.85,5.43-.85,2.58.28,2.58,2-1.14h5.7a16.17,16.17,0,0,1,9.4-3.42l4-3.42a10.09,10.09,0,0,0,3.71,2.57c2.08-.95,5.7-2.47,10.83-4.56l3.7-.57,4.56-2.85h2.28l.29-.57h2a16.67,16.67,0,0,0,10.26-3.42h6.27l.29-1.43,4-1.71,2-2.56a12,12,0,0,0,2.85.28l2.57-4.84a4.15,4.15,0,0,1,2.28-1.14c.57,0,.94.38,1.14,1.14.57-1,1.89-1.81,4-2.57l.28-1.42,2-1.43.28-2.28-1.43-3.7-2.28-2.57-2.29-.57-5.42-4.56-10.56-4a84.21,84.21,0,0,0-13.14-6.55l-4.57,2.69-8-4.86-6.54.46-4.26-2.57h-4.55l-4-2.28h-1.13a4.75,4.75,0,0,1-1.42.29,13.81,13.81,0,0,1-7.11-2.22l-6.83-1-5.13.64-5.41-1.71-6,1.43-.85-.57L740,92.55l-3.42-1.14v1.14h-6.84l-5.13,3-6,.89L711,100.25l-5.13-7.2a19.55,19.55,0,0,1-3.42-11.5l3.13-3.45a7.92,7.92,0,0,1,6.27-6.19q5.13-1.29,10.55-2.73h2.28l1.14.34,2,.35-.85,1,6-1.71h3.42a10.63,10.63,0,0,1,5.42,1.71h11.4l8.55.57,15.67,2.28,4.28,3.14,4-1.14,7.41,2h8.55l1.14,1.71h6l6.56,4,6.27.57L823,86a17.45,17.45,0,0,1,10.26,3.7l5.7-1.14,2.28,5.7,3.14,2.28h4.84L852.9,102l10.83,6.27v4.27Z" transform="translate(-60.65 -44.39)"/><path class="a" d="M1000.81,218.24q0,11.38-12.39,11.4a9.67,9.67,0,0,1-8.93-4.85q-2.9-4-4.9-15.1v-4a4.56,4.56,0,0,0,1.14-2.85,4.75,4.75,0,0,0-.29-1.43l-4-6,3.14-5.42-1.43-6,1.43-3.42v-7.13l-.86-5.13.86-2.56V144.14l-1.43-9.41,1.43-3.42-2-7.12-2.31,2-6.33,2.57-8.64,10.83-3.45-.29-5.18,8.27L945.8,151l-3.13,1.42-3.3,4.85-1.5,3.13L936,170.53l-5.62,6.24-1.25,4L926,183l-1.25,6.8-6.25,5.11-.94,10.49H915l-.85,1.71L909,216l-4.85,5.13-4.27,5.7-4.56-1.43h-3.71l-3.42-4.56-3.13-10.26v-15.1l-.86-4.85.86-5.7V171.5l1.93-.57,1.2-19.67.57-3.7v-6l1.32-.85,1-9.12,1.05-3.14-1.14-4,.86-1.42-.57-.86.85-8-2.28-2,2-4-.26-8.27L888.8,91.7l2-2.57-2-7.69V76.88l-.85-2-1.43-9.12-1.42-4.27-4.28-8.27,3.14-4,2.85-4.84h2.55q6.24,0,9.37,4.57l4,3.14,1.71,5.13,4.34,3.71-1.14,4,2.28,6V81.45L910.18,94l2,8-1.42,3.42.57,4.84-1.43,4,.86,6.84-.86,5.7v22.51l-1.71,2-.85,9.4L906.19,165l1.42,7.69-1.42,2.28v5.7q3.13-.85,3.13-3.42l2.28-2.28,2-3.71.57-5.41,3.13-4.56,1.71-5.7,4-4.54,1.06-5.38,2.66-.29v-2.54l.33-3.41,3.94-2v-2.27l2.85-.56.57-4.54-.21-2.26,5.11-2.33,1.29-1.24-.6-2.84,2.58-.86,2-4.86H948l3.15-2a10,10,0,0,1,.28-2.85l3.15-1.42q5.16-4.28,9.74-5.13v-.57q7.41-3.7,10.26-3.71,4.27,0,7.69,4a6,6,0,0,1,4,4.28l2.57,1.71.85,4,3.71,6.55v32.78l1.42,2.56v21.09l-1.42,3.71v5.7l1.42,6.27L993.4,198a44.92,44.92,0,0,1,1.51,7.13l3.33,3.13v2.28l1.14.86A28.73,28.73,0,0,1,1000.81,218.24Z" transform="translate(-60.65 -44.39)"/><path class="a" d="M1132.19,154.4l-1.71,5.13a62.53,62.53,0,0,1-.85,11.68l-1.71,2.85v3.14l-1.43,2-.85,4-3.14,3.14-2,7.12-2.29.86-1.13,3.13-3.42,2-2.28,4.84L1108,206l-.29,3.42-5.42,2a16.22,16.22,0,0,1-9.12,6.55l-1.13.29q-4,6-10.55,6a12.5,12.5,0,0,1-6.55,1.71l-2.86,2-2.84.85-3.71,2.85h-3.7l-4,.86-4.84-2-12.25-.85-4.28-6.56-6.27-6.55,1.43-4.56-4.28-9.69,1.43-3.71-.86-6.84.86-4.27v-5.7q0-5.41,3-8,.29-2.85,3.84-9.41H1037l-.86-2,.86-4v-4.28a14.59,14.59,0,0,0,2.56-3.42l-.85-4v-1.14a18.25,18.25,0,0,0,2-8.26l6-8.27c1-.76,1.61-1.33,2-1.71l-.28-1.14h1.14l4.27-4.84.29-6.56,7.12-2.56q4-2.56,5.13-8.55h3.71a12.11,12.11,0,0,1,5.7-1.71,10.67,10.67,0,0,1,4.84,1.14l3.14.28,7.41-2.85,4,3.71,3.14,2h2.27l4.28,2.28h2.28a90.83,90.83,0,0,1,8.55,9.41l.57,1.42,2,1.14,6,7.7,5.42,13.39v2.85Zm-18.81,6.74-.28-1.42a7.28,7.28,0,0,1-2.29-4.27l.86-1.42-2.57-5.4.58-5.4-1.14-1.42c-2.48-1.9-3.81-3.41-4-4.55q-2.57-1.14-2.57-5.69l-1.71-.29-3.42-5.68-2.56-2-6-2.28-2.28-.57a2.31,2.31,0,0,1-2.28-1.13l-5.7,6.23-3.7,7.93-6,3.11-.85,3.12-2.86,1.42-1.13,7.36-3.42,1.7a26.39,26.39,0,0,0-1.14,7.37l-4.56,4.24,1.42.85a7.75,7.75,0,0,1-2.87,5.95,52.33,52.33,0,0,1-2.55,5.67v6.79l-3.13,7.65.57,1.42v7.93l-1.14,4,.28,4,2.57,3.68,4,1.42,1.42.57h9.68l1.14-2.85h1.13c1.14,0,1.81.28,2,.85l2.56-.85,2.27.85,3.71-2.58.57-.87,2.56-.57q2-3.15,9.39-6.32l.57-1.43,5.69-4,3.13-4.6,4.56-2.28.3-1.42,1.48-3.13v-3.7l3.42-2.84,1.15-2,1.42-1.7a18.11,18.11,0,0,1-1.14-4.84,10.51,10.51,0,0,1,1.71-5.4Z" transform="translate(-60.65 -44.39)"/><path class="a" d="M1241.63,118.77q0,2.57-5.13,4.85a9.79,9.79,0,0,1-4.28,2.56,38.61,38.61,0,0,0-5.7,2.85l-6-2q-4.56,3.42-11.69,3.42l-3.42-.86-2.56,2h-7.7l-4.84,3.42a17.58,17.58,0,0,0-6-1.14,12.88,12.88,0,0,1-4,1.14,7.09,7.09,0,0,1-3.13-.86l-.86,10.83v17.94l.13,10.82.86,5.13-.13,4,4,8.55a2.77,2.77,0,0,0-.86,2q0,2,6.27,3.14l.57,3.42,2,.86,3.42,2.28,2.28,1.71a23.88,23.88,0,0,1,4-.57,16.15,16.15,0,0,1,5.13.86,32.1,32.1,0,0,0,4.84-4,7.53,7.53,0,0,1,4.85-2.28h1.71c1.71-3.47,4.74-5.75,9.12-6.84a14.08,14.08,0,0,1,10,3.7v2q0,9.69-6.84,12.25-2.57,6-10.83,7.7l-3.42,3.13h-3.7l-6.56,1.71a28.64,28.64,0,0,1-6.55.57,11.94,11.94,0,0,1-4.85-1.14h-3.7l-10-5.41-2.56-.86-6-8-3.42-3.7-6.27-14.25-2.28-13.4.86-3.42-2.57-3.13,1.43-4-1.43-6.27,2-2,.57-3.7-.86-3.42.86-5.13-1.43-4.56,1.43-1.43v-4.56l-2-.85L1151,135l-5.13-3.42H1145q-8.55,0-8.55-9.25v-.87L1133,116l5.42-5.2,7.12,1.14,3.71-.57,5.41,1.43h6v-5.7l-3.71-8,3.71-2-1.43-4.27.29-8.84-2.28-3.7a10.79,10.79,0,0,1-2-5.7,8.55,8.55,0,0,1,1.43-5.13l.85-4,2.28-2.28a71.45,71.45,0,0,1,10.26-1.43q9.12,0,10,8.31l-.86,1.43a8.93,8.93,0,0,1,1.71,4.88,9.82,9.82,0,0,1-.28,1.43l-.57,1.72-.29,2,1.14,3.73-.28,1.43.57,4-2.57,3.44,1.43,5.73-1.14,6.88,2.28,2.58-2.28,5.16,8.83-1.43,15.68,1.43,12.54-2,4.27.29,1.43-.29h11.11Q1241.63,112.5,1241.63,118.77Z" transform="translate(-60.65 -44.39)"/><path class="a" d="M1354.2,154.4l-1.71,5.13a62.39,62.39,0,0,1-.86,11.68l-1.71,2.85v3.14l-1.42,2-.86,4-3.13,3.14-2,7.12-2.28.86-1.14,3.13-3.42,2-2.28,4.84L1330,206l-.28,3.42-5.42,2a16.22,16.22,0,0,1-9.12,6.55l-1.14.29q-4,6-10.54,6a12.51,12.51,0,0,1-6.56,1.71l-2.85,2-2.85.85-3.7,2.85h-3.71l-4,.86-4.84-2-12.26-.85-4.27-6.56-6.27-6.55,1.42-4.56-4.27-9.69,1.42-3.71-.85-6.84.85-4.27v-5.7q0-5.41,3-8,.29-2.85,3.84-9.41H1259l-.86-2,.86-4v-4.28a14.59,14.59,0,0,0,2.56-3.42l-.85-4v-1.14a18.24,18.24,0,0,0,2-8.26l6-8.27c1-.76,1.61-1.33,2-1.71l-.28-1.14h1.14l4.27-4.84.29-6.56,7.12-2.56q4-2.56,5.13-8.55h3.71a12.11,12.11,0,0,1,5.7-1.71,10.67,10.67,0,0,1,4.84,1.14l3.14.28,7.41-2.85,4,3.71,3.13,2h2.28l4.28,2.28h2.28a90.83,90.83,0,0,1,8.55,9.41l.57,1.42,2,1.14,6,7.7,5.41,13.39v2.85Zm-18.81,6.74-.29-1.42a7.32,7.32,0,0,1-2.28-4.27l.86-1.42-2.57-5.4.57-5.4-1.14-1.42c-2.47-1.9-3.8-3.41-4-4.55q-2.57-1.14-2.56-5.69l-1.71-.29-3.42-5.68-2.57-2-6-2.28-2.28-.57a2.31,2.31,0,0,1-2.28-1.13l-5.7,6.23-3.71,7.93-6,3.11-.86,3.12-2.85,1.42-1.14,7.36-3.42,1.7a26.76,26.76,0,0,0-1.14,7.37l-4.56,4.24,1.43.85a7.75,7.75,0,0,1-2.87,5.95,56.53,56.53,0,0,1-2.55,5.67v6.79l-3.13,7.65.57,1.42v7.93l-1.14,4,.28,4,2.56,3.68,4,1.42,1.42.57h9.68l1.14-2.85h1.13c1.14,0,1.81.28,2,.85l2.56-.85,2.27.85,3.7-2.58.57-.87,2.56-.57q2-3.15,9.4-6.32l.57-1.43,5.69-4,3.13-4.6,4.56-2.28.3-1.42,1.48-3.13v-3.7l3.42-2.84,1.14-2,1.43-1.7a18.11,18.11,0,0,1-1.14-4.84,10.51,10.51,0,0,1,1.71-5.4Z" transform="translate(-60.65 -44.39)"/><rect class="b" x="190.85" y="21.97" width="32.31" height="32.31"/><rect class="b" x="223.17" y="54.28" width="32.31" height="32.31"/><rect class="b" x="255.48" y="86.6" width="32.31" height="32.31"/><rect class="b" x="287.8" y="118.91" width="32.31" height="32.31"/><rect class="b" x="320.11" y="151.22" width="32.31" height="32.31"/><rect class="b" x="380.76" y="66.35" width="32.31" height="32.31" transform="translate(733.19 120.63) rotate(-180)"/><rect class="b" x="348.45" y="98.67" width="32.31" height="32.31" transform="translate(668.56 185.26) rotate(-180)"/><rect class="b" x="283.82" y="163.3" width="32.31" height="32.31" transform="translate(539.3 314.52) rotate(-180)"/><rect class="b" x="251.5" y="195.61" width="32.31" height="32.31" transform="translate(474.67 379.15) rotate(-180)"/></svg>